# Blender v2.76 (sub 0) OBJ File: 'viscliff3.blend'
# www.blender.org
mtllib viscliff3b.mtl
o virArena2
v 0.472029 -0.221975 -0.337287
v -0.518469 -0.214885 -0.192776
v -0.803935 0.326761 -0.410706
v 0.691532 0.326761 -0.634039
v 0.543230 -0.219765 0.156159
v -0.445646 -0.212669 0.303870
v -0.655593 0.326760 0.586784
v 0.834158 0.326760 0.369256
v -0.023220 -0.218430 -0.265031
v -0.056201 0.326761 -0.522372
v 0.089283 0.326760 0.478020
v 0.048792 -0.216217 0.230015
v -0.023220 -0.874864 -0.265031
v 0.472029 -0.878408 -0.337287
v 0.543230 -0.876198 0.156159
v 0.048792 -0.872650 0.230015
vt 0.212498 0.920497
vt 0.000870 0.829503
vt 0.000000 0.646187
vt 0.448066 0.276103
vt 0.230287 0.278034
vt 0.228871 0.095254
vt 0.817585 1.000000
vt 0.448066 1.000000
vt 0.543880 0.783755
vt 0.894767 0.274915
vt 0.894767 0.549831
vt 0.677436 0.455977
vt 0.543936 0.549831
vt 0.725729 0.550701
vt 0.212498 0.970510
vt 0.212624 0.787192
vt 0.394919 0.787813
vt 0.680259 0.090832
vt 0.894767 0.000000
vt 0.231703 0.460815
vt 1.000000 0.732616
vt 0.817585 0.732699
vt 0.818205 0.550122
vt 0.001416 0.278115
vt 0.448066 0.455900
vt 0.449477 0.273328
vt 0.394911 0.786344
vt 0.212498 0.787192
vt 0.212498 0.553055
vt 0.212498 0.552206
vt 0.448066 0.000000
vt 0.725673 0.784626
vt 0.678847 0.273404
vt 0.395002 0.970510
vt 0.448066 0.552206
vt 1.000000 0.549831
vt 0.000000 0.095334
vt 0.394911 0.552206
vn 0.897900 0.419500 -0.133500
vn 0.133400 0.429600 0.893100
vn -0.895300 0.427000 0.127300
vn -0.131100 0.420000 -0.898000
vn -0.989700 0.000000 0.142800
vn 0.006400 1.000000 -0.005400
vn 0.144400 -0.000000 0.989500
vn -0.147700 0.000000 -0.989000
vn 0.989600 0.000000 -0.144000
usemtl None
s off
f 7/1/1 6/2/1 2/3/1
f 10/4/2 9/5/2 1/6/2
f 8/7/3 4/8/3 1/9/3
f 11/10/4 8/11/4 5/12/4
f 1/9/5 14/13/5 15/14/5
f 2/15/6 6/16/6 12/17/6
f 6/18/4 7/19/4 11/10/4
f 2/20/2 9/5/2 10/4/2
f 13/21/6 16/22/6 15/23/6
f 1/6/7 9/5/7 13/24/7
f 5/12/8 15/25/8 16/26/8
f 9/27/9 12/28/9 16/29/9
f 3/30/1 7/1/1 2/3/1
f 4/31/2 10/4/2 1/6/2
f 5/32/3 8/7/3 1/9/3
f 12/33/4 11/10/4 5/12/4
f 5/32/5 1/9/5 15/14/5
f 9/34/6 2/15/6 12/17/6
f 12/33/4 6/18/4 11/10/4
f 3/35/2 2/20/2 10/4/2
f 14/36/6 13/21/6 15/23/6
f 14/37/7 1/6/7 13/24/7
f 12/33/8 5/12/8 16/26/8
f 13/38/9 9/27/9 16/29/9
o RealArena
v 0.465621 -0.236975 -0.329571
v -0.513506 -0.229885 -0.188395
v -0.803935 0.326761 -0.410706
v 0.691532 0.326761 -0.634039
v 0.536005 -0.234765 0.152490
v -0.441519 -0.227669 0.296792
v -0.655593 0.326760 0.586784
v 0.834158 0.326760 0.369256
v -0.023943 -0.233430 -0.258983
v -0.056201 0.326761 -0.522372
v 0.089283 0.326760 0.478020
v 0.047243 -0.231217 0.224641
v -0.409670 -0.228109 0.254302
v -0.470666 -0.229987 -0.156802
v -0.030303 -0.233176 -0.220372
v 0.030013 -0.231300 0.189408
v -0.007098 -0.233373 -0.229017
v 0.438157 -0.236597 -0.293276
v 0.499308 -0.234677 0.125555
v 0.054750 -0.231450 0.191172
vt 0.994466 1.000000
vt 0.700050 0.873706
vt 0.699044 0.631106
vt 0.400878 0.373929
vt 0.101726 0.377391
vt 0.099664 0.132752
vt 1.000000 0.000000
vt 1.000000 0.501217
vt 0.699044 0.367853
vt 0.699044 0.372321
vt 0.699044 0.744642
vt 0.400878 0.614214
vt 0.093252 0.148830
vt 0.006660 0.149401
vt 0.001719 0.377770
vt 0.009406 0.383634
vt 0.010956 0.603456
vt 0.404302 0.125493
vt 0.699044 0.000000
vt 0.103788 0.622029
vt 0.046510 0.572452
vt 0.044071 0.352630
vt 0.177478 0.352309
vt 0.094143 0.383313
vt 0.003439 0.622130
vt 0.095983 0.603371
vt 0.052690 0.242283
vt 0.052552 0.222748
vt 0.060520 0.222695
vt 0.095044 0.361381
vt 0.000000 0.133409
vt 0.008154 0.361710
vt 0.994466 0.501217
vt 0.400878 0.000000
vt 0.700387 0.126900
vt 0.402590 0.369853
vt 0.400878 0.747859
vt 0.180373 0.572367
vt 0.060685 0.242253
vn 0.898500 0.417600 -0.135200
vn 0.132000 0.428000 0.894100
vn -0.895100 0.427400 0.127200
vn -0.131300 0.416900 -0.899400
vn 0.006400 1.000000 -0.005500
vn -0.131200 0.419200 -0.898400
vn 0.899500 0.415900 -0.133800
vn 0.133400 0.429000 0.893400
vn -0.895600 0.425800 0.128800
vn -0.129700 0.418100 -0.899100
vn 0.133600 0.426900 0.894400
usemtl None
s off
f 23/39/10 22/40/10 18/41/10
f 26/42/11 25/43/11 17/44/11
f 24/45/12 20/46/12 17/47/12
f 27/48/13 24/49/13 21/50/13
f 17/44/14 34/51/14 35/52/14
f 28/53/14 32/54/14 29/55/14
f 22/56/15 23/57/15 27/48/15
f 18/58/11 25/43/11 26/42/11
f 29/59/14 32/60/14 31/61/14
f 25/43/14 31/62/14 32/54/14
f 22/63/14 29/55/14 30/64/14
f 25/43/14 18/58/14 30/64/14
f 36/65/14 35/66/14 34/67/14
f 25/43/14 33/68/14 34/51/14
f 28/53/14 21/69/14 35/52/14
f 28/53/14 36/70/14 33/68/14
f 19/71/16 23/39/16 18/41/16
f 20/72/17 26/42/17 17/44/17
f 21/73/18 24/45/18 17/47/18
f 28/74/19 27/48/19 21/50/19
f 21/69/14 17/44/14 35/52/14
f 22/63/14 28/53/14 29/55/14
f 28/74/19 22/56/19 27/48/19
f 19/75/20 18/58/20 26/42/20
f 30/76/14 29/59/14 31/61/14
f 28/53/14 25/43/14 32/54/14
f 18/58/14 22/63/14 30/64/14
f 31/62/14 25/43/14 30/64/14
f 33/77/14 36/65/14 34/67/14
f 17/44/14 25/43/14 34/51/14
f 36/70/14 28/53/14 35/52/14
f 25/43/14 28/53/14 33/68/14
o virArena
v 0.472029 -0.221975 -0.337287
v -0.518469 -0.214885 -0.192776
v -0.803935 0.326761 -0.410706
v 0.691532 0.326761 -0.634039
v 0.543230 -0.219765 0.156159
v -0.445646 -0.212669 0.303870
v -0.655593 0.326760 0.586784
v 0.834158 0.326760 0.369256
v -0.023220 -0.218430 -0.265031
v -0.056201 0.326761 -0.522372
v 0.089283 0.326760 0.478020
v 0.048792 -0.216217 0.230015
v -0.449850 -0.872648 0.307432
v -0.522673 -0.874865 -0.189214
v -0.027424 -0.878410 -0.261469
v 0.044588 -0.876197 0.233577
vt 0.448914 1.000000
vt 0.539899 0.787725
vt 0.723247 0.786853
vt 0.448914 0.276736
vt 0.230713 0.278672
vt 0.229294 0.095473
vt 0.216454 0.553471
vt 0.216454 0.924410
vt 0.000000 0.828254
vt 0.895962 0.275546
vt 0.895962 0.551091
vt 0.678302 0.457023
vt 1.000000 0.734296
vt 0.817271 0.734379
vt 0.817892 0.551384
vt 0.399183 0.553493
vt 0.399183 0.789413
vt 0.216454 0.789391
vt 0.681128 0.091041
vt 0.895962 0.000000
vt 0.232132 0.461872
vt 0.216454 0.973151
vt 0.216580 0.789413
vt 0.399189 0.790035
vt 0.538782 0.551964
vt 0.722130 0.551091
vt 0.001419 0.463666
vt 0.000000 0.280466
vt 0.679715 0.274032
vt 0.448914 0.272242
vt 0.450327 0.089251
vt 0.817271 1.000000
vt 0.448914 0.000000
vt 0.000872 0.645763
vt 1.000000 0.551091
vt 0.448914 0.553471
vt 0.399272 0.973151
vn 0.897900 0.419500 -0.133500
vn 0.133400 0.429600 0.893100
vn -0.895300 0.427000 0.127300
vn -0.131100 0.420000 -0.898000
vn 0.006400 1.000000 -0.005400
vn -0.989600 0.007100 0.143900
vn 0.989400 -0.007100 -0.145000
vn 0.144400 0.004400 0.989500
vn -0.147800 -0.004400 -0.989000
usemtl Material
s off
f 43/78/21 42/79/21 38/80/21
f 46/81/22 45/82/22 37/83/22
f 44/84/23 40/85/23 37/86/23
f 47/87/24 44/88/24 41/89/24
f 45/90/25 48/91/25 41/92/25
f 45/93/26 51/94/26 52/95/26
f 42/96/24 43/97/24 47/87/24
f 38/98/22 45/82/22 46/81/22
f 50/99/25 49/100/25 52/101/25
f 42/79/27 49/102/27 50/103/27
f 38/98/28 50/104/28 51/105/28
f 48/106/29 52/107/29 49/108/29
f 39/109/21 43/78/21 38/80/21
f 40/110/22 46/81/22 37/83/22
f 41/111/23 44/84/23 37/86/23
f 48/106/24 47/87/24 41/89/24
f 37/112/25 45/90/25 41/92/25
f 48/84/26 45/93/26 52/95/26
f 48/106/24 42/96/24 47/87/24
f 39/113/22 38/98/22 46/81/22
f 51/114/25 50/99/25 52/101/25
f 38/80/27 42/79/27 50/103/27
f 45/82/28 38/98/28 51/105/28
f 42/96/29 48/106/29 49/108/29
o Arena
v 0.472029 -0.221975 -0.337287
v -0.518469 -0.214885 -0.192776
v -0.803935 0.326761 -0.410706
v 0.691532 0.326761 -0.634039
v 0.543230 -0.219765 0.156159
v -0.445646 -0.212669 0.303870
v -0.655593 0.326760 0.586784
v 0.834158 0.326760 0.369256
vt 0.000000 0.000000
vn 0.897900 0.419500 -0.133500
vn 0.133400 0.429600 0.893100
vn -0.895300 0.427000 0.127300
vn -0.131100 0.420000 -0.898000
vn 0.006400 1.000000 -0.005400
usemtl None_NONE
s off
f 59/115/30 58/115/30 54/115/30
f 55/115/31 54/115/31 53/115/31
f 60/115/32 56/115/32 53/115/32
f 58/115/33 59/115/33 60/115/33
f 54/115/34 58/115/34 57/115/34
f 55/115/30 59/115/30 54/115/30
f 56/115/31 55/115/31 53/115/31
f 57/115/32 60/115/32 53/115/32
f 57/115/33 58/115/33 60/115/33
f 53/115/34 54/115/34 57/115/34
