# Blender v2.76 (sub 0) OBJ File: 'viscliff4.blend'
# www.blender.org
mtllib viscliff4.mtl
o realArena2
v 0.464271 -0.237781 -0.332044
v -0.505172 -0.230691 -0.189976
v -0.803935 0.326761 -0.410706
v 0.691532 0.326761 -0.634039
v 0.533958 -0.235571 0.153062
v -0.433896 -0.228474 0.298276
v -0.655593 0.326760 0.586784
v 0.834158 0.326760 0.369256
v -0.020450 -0.234236 -0.261010
v -0.056201 0.326761 -0.522372
v 0.089283 0.326760 0.478020
v 0.050031 -0.232023 0.225669
v 0.001389 -0.227844 -0.218128
v 0.433633 -0.231208 -0.281464
v 0.492388 -0.228914 0.127808
v 0.060838 -0.225547 0.192518
v -0.024779 -0.871558 -0.230422
v 0.446041 -0.875204 -0.299408
v 0.510146 -0.872740 0.147111
v 0.040082 -0.869091 0.217592
vt 0.269545 0.603017
vt 0.057917 0.512023
vt 0.057047 0.328707
vt 0.448066 0.276103
vt 0.230287 0.278034
vt 0.228871 0.095254
vt 0.573476 0.679114
vt 0.203957 0.679114
vt 0.299770 0.462868
vt 0.528603 0.270978
vt 0.528603 0.545893
vt 0.311272 0.452040
vt 0.974938 0.138391
vt 0.794724 0.138369
vt 0.807292 0.132581
vt 0.803086 0.200777
vt 0.803212 0.017460
vt 0.985507 0.018080
vt 0.314094 0.086894
vt 0.528603 -0.003937
vt 0.231703 0.460815
vt 0.914248 0.988393
vt 0.914253 0.974777
vt 0.870038 0.046705
vt 0.865820 0.055890
vt 0.865794 0.235045
vt 0.897524 0.046178
vt 0.897456 0.233623
vt 0.887903 0.220499
vt 0.951736 0.163981
vt 0.939780 0.193050
vt 0.780018 0.193155
vt 0.979969 0.978853
vt 0.973554 0.978856
vt 0.973576 0.972435
vt 0.805764 0.991887
vt 0.805765 0.984192
vt 0.724313 0.975634
vt 0.733658 0.975628
vt 0.853853 0.974808
vt 0.869777 0.974810
vt 0.269545 0.234725
vt 0.448066 0.000000
vt 0.481563 0.463739
vt 0.312683 0.269467
vt 0.962479 0.132599
vt 0.985590 0.200777
vt 0.448066 0.552206
vt 0.870010 0.244387
vt 0.887962 0.059167
vt 0.768062 0.164102
vt 0.979969 0.972424
vn 0.894900 0.426200 -0.132600
vn 0.134300 0.425500 0.894900
vn -0.894700 0.428200 0.127200
vn -0.131400 0.416100 -0.899800
vn 0.165000 0.985900 -0.028200
vn 0.006500 1.000000 -0.005500
vn -0.131400 0.415300 -0.900200
vn -0.148500 -0.033700 -0.988300
vn -0.013000 0.989900 -0.141000
vn 0.036800 0.979600 0.197600
vn -0.392000 0.918500 0.051600
vn 0.006800 1.000000 -0.006500
vn 0.144700 -0.024800 0.989200
vn 0.989000 -0.037500 -0.143000
vn -0.989600 -0.023000 0.142200
vn 0.894500 0.426700 -0.133000
vn 0.133700 0.425100 0.895200
vn -0.894500 0.428900 0.126500
vn -0.132000 0.415700 -0.899900
vn 0.176300 0.983900 -0.030800
vn 0.133600 0.425900 0.894800
vn -0.012800 0.990600 -0.136400
vn 0.038200 0.978300 0.203500
vn -0.368100 0.928500 0.049100
usemtl None
s off
f 7/1/1 6/2/1 2/3/1
f 10/4/2 9/5/2 1/6/2
f 8/7/3 4/8/3 1/9/3
f 11/10/4 8/11/4 5/12/4
f 5/13/5 1/14/5 14/15/5
f 2/16/6 6/17/6 12/18/6
f 6/19/7 7/20/7 11/10/7
f 2/21/2 9/5/2 10/4/2
f 15/22/8 19/22/8 20/23/8
f 9/24/9 13/25/9 14/26/9
f 12/27/10 5/28/10 15/29/10
f 12/30/11 16/31/11 13/32/11
f 17/33/12 20/34/12 19/35/12
f 14/36/13 13/37/13 17/37/13
f 13/38/14 16/39/14 20/39/14
f 14/40/15 18/40/15 19/41/15
f 3/42/16 7/1/16 2/3/16
f 4/43/17 10/4/17 1/6/17
f 5/44/18 8/7/18 1/9/18
f 12/45/19 11/10/19 5/12/19
f 15/46/20 5/13/20 14/15/20
f 9/47/6 2/16/6 12/18/6
f 12/45/19 6/19/19 11/10/19
f 3/48/21 2/21/21 10/4/21
f 16/23/8 15/22/8 20/23/8
f 1/49/22 9/24/22 14/26/22
f 16/50/23 12/27/23 15/29/23
f 9/51/24 12/30/24 13/32/24
f 18/52/12 17/33/12 19/35/12
f 18/36/13 14/36/13 17/37/13
f 17/38/14 13/38/14 20/39/14
f 15/41/15 14/40/15 19/41/15
o ArenaNoFloor
v 0.466341 -0.238811 -0.330889
v -0.511420 -0.231812 -0.188221
v -0.803935 0.326761 -0.410706
v 0.691532 0.326761 -0.634039
v 0.535978 -0.236649 0.151823
v -0.440186 -0.229643 0.297619
v -0.655593 0.326760 0.586784
v 0.834158 0.326760 0.369256
vt 0.000000 0.000000
vn 0.898800 0.417400 -0.133600
vn 0.133600 0.426300 0.894700
vn -0.896100 0.425100 0.127400
vn -0.131300 0.416600 -0.899500
vn 0.006400 1.000000 -0.005400
vn 0.898800 0.417500 -0.133700
vn 0.133600 0.426300 0.894600
vn -0.131400 0.416700 -0.899500
usemtl None_NONE
s off
f 27/53/25 26/53/25 22/53/25
f 23/53/26 22/53/26 21/53/26
f 28/53/27 24/53/27 21/53/27
f 26/53/28 27/53/28 28/53/28
f 22/53/29 26/53/29 25/53/29
f 23/53/30 27/53/30 22/53/30
f 24/53/31 23/53/31 21/53/31
f 25/53/27 28/53/27 21/53/27
f 25/53/32 26/53/32 28/53/32
f 21/53/29 22/53/29 25/53/29
o virArena2
v 0.472029 -0.221975 -0.337287
v -0.518469 -0.214885 -0.192776
v -0.803935 0.326761 -0.410706
v 0.691532 0.326761 -0.634039
v 0.543230 -0.219765 0.156159
v -0.445646 -0.212669 0.303870
v -0.655593 0.326760 0.586784
v 0.834158 0.326760 0.369256
v -0.023220 -0.218430 -0.265031
v -0.056201 0.326761 -0.522372
v 0.089283 0.326760 0.478020
v 0.048792 -0.216217 0.230015
v -0.023220 -0.874864 -0.265031
v 0.472029 -0.878408 -0.337287
v 0.543230 -0.876198 0.156159
v 0.048792 -0.872650 0.230015
vt 0.212498 0.920497
vt 0.000870 0.829503
vt 0.000000 0.646187
vt 0.448066 0.276103
vt 0.230287 0.278034
vt 0.228871 0.095254
vt 0.817585 1.000000
vt 0.448066 1.000000
vt 0.543880 0.783755
vt 0.894767 0.274915
vt 0.894767 0.549831
vt 0.677436 0.455977
vt 0.543936 0.549831
vt 0.725729 0.550701
vt 0.212498 0.970510
vt 0.212624 0.787192
vt 0.394919 0.787813
vt 0.680259 0.090832
vt 0.894767 0.000000
vt 0.231703 0.460815
vt 1.000000 0.732616
vt 0.817585 0.732699
vt 0.818205 0.550122
vt 0.001416 0.278115
vt 0.448066 0.455900
vt 0.449477 0.273328
vt 0.394911 0.786344
vt 0.212498 0.787192
vt 0.212498 0.553055
vt 0.212498 0.552206
vt 0.448066 0.000000
vt 0.725673 0.784626
vt 0.678847 0.273404
vt 0.395002 0.970510
vt 0.448066 0.552206
vt 1.000000 0.549831
vt 0.000000 0.095334
vt 0.394911 0.552206
vn 0.897900 0.419500 -0.133500
vn 0.133400 0.429600 0.893100
vn -0.895300 0.427000 0.127300
vn -0.131100 0.420000 -0.898000
vn -0.989700 0.000000 0.142800
vn 0.006400 1.000000 -0.005400
vn 0.144400 -0.000000 0.989500
vn -0.147700 0.000000 -0.989000
vn 0.989600 0.000000 -0.144000
usemtl None
s off
f 35/54/33 34/55/33 30/56/33
f 38/57/34 37/58/34 29/59/34
f 36/60/35 32/61/35 29/62/35
f 39/63/36 36/64/36 33/65/36
f 29/62/37 42/66/37 43/67/37
f 30/68/38 34/69/38 40/70/38
f 34/71/36 35/72/36 39/63/36
f 30/73/34 37/58/34 38/57/34
f 41/74/38 44/75/38 43/76/38
f 29/59/39 37/58/39 41/77/39
f 33/65/40 43/78/40 44/79/40
f 37/80/41 40/81/41 44/82/41
f 31/83/33 35/54/33 30/56/33
f 32/84/34 38/57/34 29/59/34
f 33/85/35 36/60/35 29/62/35
f 40/86/36 39/63/36 33/65/36
f 33/85/37 29/62/37 43/67/37
f 37/87/38 30/68/38 40/70/38
f 40/86/36 34/71/36 39/63/36
f 31/88/34 30/73/34 38/57/34
f 42/89/38 41/74/38 43/76/38
f 42/90/39 29/59/39 41/77/39
f 40/86/40 33/65/40 44/79/40
f 41/91/41 37/80/41 44/82/41
o virArena
v 0.472029 -0.221975 -0.337287
v -0.518469 -0.214885 -0.192776
v -0.803935 0.326761 -0.410706
v 0.691532 0.326761 -0.634039
v 0.543230 -0.219765 0.156159
v -0.445646 -0.212669 0.303870
v -0.655593 0.326760 0.586784
v 0.834158 0.326760 0.369256
v -0.023220 -0.218430 -0.265031
v -0.056201 0.326761 -0.522372
v 0.089283 0.326760 0.478020
v 0.048792 -0.216217 0.230015
v -0.449850 -0.872648 0.307432
v -0.522673 -0.874865 -0.189214
v -0.027424 -0.878410 -0.261469
v 0.044588 -0.876197 0.233577
vt 0.448914 1.000000
vt 0.539899 0.787725
vt 0.723247 0.786853
vt 0.448914 0.276736
vt 0.230713 0.278672
vt 0.229294 0.095473
vt 0.216454 0.553471
vt 0.216454 0.924410
vt 0.000000 0.828254
vt 0.895962 0.275546
vt 0.895962 0.551091
vt 0.678302 0.457023
vt 1.000000 0.734296
vt 0.817271 0.734379
vt 0.817892 0.551384
vt 0.399183 0.553493
vt 0.399183 0.789413
vt 0.216454 0.789391
vt 0.681128 0.091041
vt 0.895962 0.000000
vt 0.232132 0.461872
vt 0.216454 0.973151
vt 0.216580 0.789413
vt 0.399189 0.790035
vt 0.538782 0.551964
vt 0.722130 0.551091
vt 0.001419 0.463666
vt 0.000000 0.280466
vt 0.679715 0.274032
vt 0.448914 0.272242
vt 0.450327 0.089251
vt 0.817271 1.000000
vt 0.448914 0.000000
vt 0.000872 0.645763
vt 1.000000 0.551091
vt 0.448914 0.553471
vt 0.399272 0.973151
vn 0.897900 0.419500 -0.133500
vn 0.133400 0.429600 0.893100
vn -0.895300 0.427000 0.127300
vn -0.131100 0.420000 -0.898000
vn 0.006400 1.000000 -0.005400
vn -0.989600 0.007100 0.143900
vn 0.989400 -0.007100 -0.145000
vn 0.144400 0.004400 0.989500
vn -0.147800 -0.004400 -0.989000
usemtl Material
s off
f 51/92/42 50/93/42 46/94/42
f 54/95/43 53/96/43 45/97/43
f 52/98/44 48/99/44 45/100/44
f 55/101/45 52/102/45 49/103/45
f 53/104/46 56/105/46 49/106/46
f 53/107/47 59/108/47 60/109/47
f 50/110/45 51/111/45 55/101/45
f 46/112/43 53/96/43 54/95/43
f 58/113/46 57/114/46 60/115/46
f 50/93/48 57/116/48 58/117/48
f 46/112/49 58/118/49 59/119/49
f 56/120/50 60/121/50 57/122/50
f 47/123/42 51/92/42 46/94/42
f 48/124/43 54/95/43 45/97/43
f 49/125/44 52/98/44 45/100/44
f 56/120/45 55/101/45 49/103/45
f 45/126/46 53/104/46 49/106/46
f 56/98/47 53/107/47 60/109/47
f 56/120/45 50/110/45 55/101/45
f 47/127/43 46/112/43 54/95/43
f 59/128/46 58/113/46 60/115/46
f 46/94/48 50/93/48 58/117/48
f 53/96/49 46/112/49 59/119/49
f 50/110/50 56/120/50 57/122/50
o Arena
v 0.472029 -0.221975 -0.337287
v -0.518469 -0.214885 -0.192776
v -0.803935 0.326761 -0.410706
v 0.691532 0.326761 -0.634039
v 0.543230 -0.219765 0.156159
v -0.445646 -0.212669 0.303870
v -0.655593 0.326760 0.586784
v 0.834158 0.326760 0.369256
vt 0.000000 0.000000
vn 0.897900 0.419500 -0.133500
vn 0.133400 0.429600 0.893100
vn -0.895300 0.427000 0.127300
vn -0.131100 0.420000 -0.898000
vn 0.006400 1.000000 -0.005400
usemtl None_NONE
s off
f 67/129/51 66/129/51 62/129/51
f 63/129/52 62/129/52 61/129/52
f 68/129/53 64/129/53 61/129/53
f 66/129/54 67/129/54 68/129/54
f 62/129/55 66/129/55 65/129/55
f 63/129/51 67/129/51 62/129/51
f 64/129/52 63/129/52 61/129/52
f 65/129/53 68/129/53 61/129/53
f 65/129/54 66/129/54 68/129/54
f 61/129/55 62/129/55 65/129/55
