# Blender v2.76 (sub 0) OBJ File: 'viscliff4.blend'
# www.blender.org
mtllib viscliff4.mtl
o realArena2
v 0.464271 -0.237781 -0.332044
v -0.505172 -0.230691 -0.189976
v -0.803935 0.326761 -0.410706
v 0.691532 0.326761 -0.634039
v 0.533958 -0.235571 0.153062
v -0.433896 -0.228474 0.298276
v -0.655593 0.326760 0.586784
v 0.834158 0.326760 0.369256
v -0.020450 -0.234236 -0.261010
v -0.056201 0.326761 -0.522372
v 0.089283 0.326760 0.478020
v 0.050031 -0.232023 0.225669
v 0.014719 -0.227594 -0.234869
v 0.438158 -0.230690 -0.296923
v 0.499036 -0.228760 0.126853
v 0.076290 -0.225660 0.190280
vt 0.212498 0.920497
vt 0.000870 0.829503
vt 0.000000 0.646187
vt 0.448066 0.276103
vt 0.230287 0.278034
vt 0.228871 0.095254
vt 0.817585 1.000000
vt 0.448066 1.000000
vt 0.543880 0.783755
vt 0.894767 0.274915
vt 0.894767 0.549831
vt 0.677436 0.455977
vt 0.662911 0.681731
vt 0.482697 0.681710
vt 0.495265 0.675922
vt 0.212498 0.970510
vt 0.212624 0.787192
vt 0.394919 0.787813
vt 0.680259 0.090832
vt 0.894767 0.000000
vt 0.231703 0.460815
vt 0.979969 0.978853
vt 0.973554 0.978856
vt 0.973576 0.972435
vt 0.447768 0.467991
vt 0.443550 0.477176
vt 0.443524 0.656331
vt 0.581491 0.554509
vt 0.571938 0.541385
vt 0.571997 0.380053
vt 0.373352 0.645432
vt 0.557026 0.645310
vt 0.545070 0.674379
vt 0.212498 0.552206
vt 0.448066 0.000000
vt 0.725673 0.784626
vt 0.678847 0.273404
vt 0.650452 0.675940
vt 0.395002 0.970510
vt 0.448066 0.552206
vt 0.979969 0.972424
vt 0.447739 0.665673
vt 0.581560 0.367064
vt 0.385308 0.674484
vn 0.894900 0.426200 -0.132600
vn 0.134300 0.425500 0.894900
vn -0.894700 0.428200 0.127200
vn -0.131400 0.416100 -0.899800
vn 0.217000 0.975500 -0.035600
vn 0.006500 1.000000 -0.005500
vn -0.131400 0.415300 -0.900200
vn -0.024400 0.976300 -0.215200
vn 0.037800 0.978300 0.203900
vn -0.203400 0.978800 0.025000
vn 0.894500 0.426700 -0.133000
vn 0.133700 0.425100 0.895200
vn -0.894500 0.428900 0.126500
vn -0.132000 0.415700 -0.899900
vn 0.133600 0.425900 0.894800
usemtl None
s off
f 7/1/1 6/2/1 2/3/1
f 10/4/2 9/5/2 1/6/2
f 8/7/3 4/8/3 1/9/3
f 11/10/4 8/11/4 5/12/4
f 5/13/5 1/14/5 14/15/5
f 2/16/6 6/17/6 12/18/6
f 6/19/7 7/20/7 11/10/7
f 2/21/2 9/5/2 10/4/2
f 13/22/6 16/23/6 15/24/6
f 9/25/8 13/26/8 14/27/8
f 5/28/9 15/29/9 16/30/9
f 9/31/10 12/32/10 16/33/10
f 3/34/11 7/1/11 2/3/11
f 4/35/12 10/4/12 1/6/12
f 5/36/13 8/7/13 1/9/13
f 12/37/14 11/10/14 5/12/14
f 15/38/5 5/13/5 14/15/5
f 9/39/6 2/16/6 12/18/6
f 12/37/14 6/19/14 11/10/14
f 3/40/15 2/21/15 10/4/15
f 14/41/6 13/22/6 15/24/6
f 1/42/8 9/25/8 14/27/8
f 12/43/9 5/28/9 16/30/9
f 13/44/10 9/31/10 16/33/10
o ArenaNoFloor
v 0.466341 -0.238811 -0.330889
v -0.511420 -0.231812 -0.188221
v -0.803935 0.326761 -0.410706
v 0.691532 0.326761 -0.634039
v 0.535978 -0.236649 0.151823
v -0.440186 -0.229643 0.297619
v -0.655593 0.326760 0.586784
v 0.834158 0.326760 0.369256
vt 0.000000 0.000000
vn 0.898800 0.417400 -0.133600
vn 0.133600 0.426300 0.894700
vn -0.896100 0.425100 0.127400
vn -0.131300 0.416600 -0.899500
vn 0.006400 1.000000 -0.005400
vn 0.898800 0.417500 -0.133700
vn 0.133600 0.426300 0.894600
vn -0.131400 0.416700 -0.899500
usemtl None_NONE
s off
f 23/45/16 22/45/16 18/45/16
f 19/45/17 18/45/17 17/45/17
f 24/45/18 20/45/18 17/45/18
f 22/45/19 23/45/19 24/45/19
f 18/45/20 22/45/20 21/45/20
f 19/45/21 23/45/21 18/45/21
f 20/45/22 19/45/22 17/45/22
f 21/45/18 24/45/18 17/45/18
f 21/45/23 22/45/23 24/45/23
f 17/45/20 18/45/20 21/45/20
o virArena2
v 0.472029 -0.221975 -0.337287
v -0.518469 -0.214885 -0.192776
v -0.803935 0.326761 -0.410706
v 0.691532 0.326761 -0.634039
v 0.543230 -0.219765 0.156159
v -0.445646 -0.212669 0.303870
v -0.655593 0.326760 0.586784
v 0.834158 0.326760 0.369256
v -0.023220 -0.218430 -0.265031
v -0.056201 0.326761 -0.522372
v 0.089283 0.326760 0.478020
v 0.048792 -0.216217 0.230015
v -0.023220 -0.874864 -0.265031
v 0.472029 -0.878408 -0.337287
v 0.543230 -0.876198 0.156159
v 0.048792 -0.872650 0.230015
vt 0.212498 0.920497
vt 0.000870 0.829503
vt 0.000000 0.646187
vt 0.448066 0.276103
vt 0.230287 0.278034
vt 0.228871 0.095254
vt 0.817585 1.000000
vt 0.448066 1.000000
vt 0.543880 0.783755
vt 0.894767 0.274915
vt 0.894767 0.549831
vt 0.677436 0.455977
vt 0.543936 0.549831
vt 0.725729 0.550701
vt 0.212498 0.970510
vt 0.212624 0.787192
vt 0.394919 0.787813
vt 0.680259 0.090832
vt 0.894767 0.000000
vt 0.231703 0.460815
vt 1.000000 0.732616
vt 0.817585 0.732699
vt 0.818205 0.550122
vt 0.001416 0.278115
vt 0.448066 0.455900
vt 0.449477 0.273328
vt 0.394911 0.786344
vt 0.212498 0.787192
vt 0.212498 0.553055
vt 0.212498 0.552206
vt 0.448066 0.000000
vt 0.725673 0.784626
vt 0.678847 0.273404
vt 0.395002 0.970510
vt 0.448066 0.552206
vt 1.000000 0.549831
vt 0.000000 0.095334
vt 0.394911 0.552206
vn 0.897900 0.419500 -0.133500
vn 0.133400 0.429600 0.893100
vn -0.895300 0.427000 0.127300
vn -0.131100 0.420000 -0.898000
vn -0.989700 0.000000 0.142800
vn 0.006400 1.000000 -0.005400
vn 0.144400 -0.000000 0.989500
vn -0.147700 0.000000 -0.989000
vn 0.989600 0.000000 -0.144000
usemtl None
s off
f 31/46/24 30/47/24 26/48/24
f 34/49/25 33/50/25 25/51/25
f 32/52/26 28/53/26 25/54/26
f 35/55/27 32/56/27 29/57/27
f 25/54/28 38/58/28 39/59/28
f 26/60/29 30/61/29 36/62/29
f 30/63/27 31/64/27 35/55/27
f 26/65/25 33/50/25 34/49/25
f 37/66/29 40/67/29 39/68/29
f 25/51/30 33/50/30 37/69/30
f 29/57/31 39/70/31 40/71/31
f 33/72/32 36/73/32 40/74/32
f 27/75/24 31/46/24 26/48/24
f 28/76/25 34/49/25 25/51/25
f 29/77/26 32/52/26 25/54/26
f 36/78/27 35/55/27 29/57/27
f 29/77/28 25/54/28 39/59/28
f 33/79/29 26/60/29 36/62/29
f 36/78/27 30/63/27 35/55/27
f 27/80/25 26/65/25 34/49/25
f 38/81/29 37/66/29 39/68/29
f 38/82/30 25/51/30 37/69/30
f 36/78/31 29/57/31 40/71/31
f 37/83/32 33/72/32 40/74/32
o virArena
v 0.472029 -0.221975 -0.337287
v -0.518469 -0.214885 -0.192776
v -0.803935 0.326761 -0.410706
v 0.691532 0.326761 -0.634039
v 0.543230 -0.219765 0.156159
v -0.445646 -0.212669 0.303870
v -0.655593 0.326760 0.586784
v 0.834158 0.326760 0.369256
v -0.023220 -0.218430 -0.265031
v -0.056201 0.326761 -0.522372
v 0.089283 0.326760 0.478020
v 0.048792 -0.216217 0.230015
v -0.449850 -0.872648 0.307432
v -0.522673 -0.874865 -0.189214
v -0.027424 -0.878410 -0.261469
v 0.044588 -0.876197 0.233577
vt 0.448914 1.000000
vt 0.539899 0.787725
vt 0.723247 0.786853
vt 0.448914 0.276736
vt 0.230713 0.278672
vt 0.229294 0.095473
vt 0.216454 0.553471
vt 0.216454 0.924410
vt 0.000000 0.828254
vt 0.895962 0.275546
vt 0.895962 0.551091
vt 0.678302 0.457023
vt 1.000000 0.734296
vt 0.817271 0.734379
vt 0.817892 0.551384
vt 0.399183 0.553493
vt 0.399183 0.789413
vt 0.216454 0.789391
vt 0.681128 0.091041
vt 0.895962 0.000000
vt 0.232132 0.461872
vt 0.216454 0.973151
vt 0.216580 0.789413
vt 0.399189 0.790035
vt 0.538782 0.551964
vt 0.722130 0.551091
vt 0.001419 0.463666
vt 0.000000 0.280466
vt 0.679715 0.274032
vt 0.448914 0.272242
vt 0.450327 0.089251
vt 0.817271 1.000000
vt 0.448914 0.000000
vt 0.000872 0.645763
vt 1.000000 0.551091
vt 0.448914 0.553471
vt 0.399272 0.973151
vn 0.897900 0.419500 -0.133500
vn 0.133400 0.429600 0.893100
vn -0.895300 0.427000 0.127300
vn -0.131100 0.420000 -0.898000
vn 0.006400 1.000000 -0.005400
vn -0.989600 0.007100 0.143900
vn 0.989400 -0.007100 -0.145000
vn 0.144400 0.004400 0.989500
vn -0.147800 -0.004400 -0.989000
usemtl Material
s off
f 47/84/33 46/85/33 42/86/33
f 50/87/34 49/88/34 41/89/34
f 48/90/35 44/91/35 41/92/35
f 51/93/36 48/94/36 45/95/36
f 49/96/37 52/97/37 45/98/37
f 49/99/38 55/100/38 56/101/38
f 46/102/36 47/103/36 51/93/36
f 42/104/34 49/88/34 50/87/34
f 54/105/37 53/106/37 56/107/37
f 46/85/39 53/108/39 54/109/39
f 42/104/40 54/110/40 55/111/40
f 52/112/41 56/113/41 53/114/41
f 43/115/33 47/84/33 42/86/33
f 44/116/34 50/87/34 41/89/34
f 45/117/35 48/90/35 41/92/35
f 52/112/36 51/93/36 45/95/36
f 41/118/37 49/96/37 45/98/37
f 52/90/38 49/99/38 56/101/38
f 52/112/36 46/102/36 51/93/36
f 43/119/34 42/104/34 50/87/34
f 55/120/37 54/105/37 56/107/37
f 42/86/39 46/85/39 54/109/39
f 49/88/40 42/104/40 55/111/40
f 46/102/41 52/112/41 53/114/41
o Arena
v 0.472029 -0.221975 -0.337287
v -0.518469 -0.214885 -0.192776
v -0.803935 0.326761 -0.410706
v 0.691532 0.326761 -0.634039
v 0.543230 -0.219765 0.156159
v -0.445646 -0.212669 0.303870
v -0.655593 0.326760 0.586784
v 0.834158 0.326760 0.369256
vt 0.000000 0.000000
vn 0.897900 0.419500 -0.133500
vn 0.133400 0.429600 0.893100
vn -0.895300 0.427000 0.127300
vn -0.131100 0.420000 -0.898000
vn 0.006400 1.000000 -0.005400
usemtl None_NONE
s off
f 63/121/42 62/121/42 58/121/42
f 59/121/43 58/121/43 57/121/43
f 64/121/44 60/121/44 57/121/44
f 62/121/45 63/121/45 64/121/45
f 58/121/46 62/121/46 61/121/46
f 59/121/42 63/121/42 58/121/42
f 60/121/43 59/121/43 57/121/43
f 61/121/44 64/121/44 57/121/44
f 61/121/45 62/121/45 64/121/45
f 57/121/46 58/121/46 61/121/46
